HIERARCHY
ROOT Hips
{
	OFFSET -3.958830 18.904000 13.208200
	CHANNELS 6 Xposition Yposition Zposition Zrotation Yrotation Xrotation 
	JOINT LHipJoint
	{
		OFFSET 0.000000 0.000000 0.000000
		CHANNELS 3 Zrotation Yrotation Xrotation
		JOINT LeftUpLeg
		{
			OFFSET 1.800000 -1.400000 0.085000
			CHANNELS 3 Zrotation Yrotation Xrotation
			JOINT LeftLeg
			{
				OFFSET 2.215000 -6.000000 0.000000
				CHANNELS 3 Zrotation Yrotation Xrotation
				JOINT LeftFoot
				{
					OFFSET 2.500000 -6.900000 0.000000
					CHANNELS 3 Zrotation Yrotation Xrotation
					JOINT LeftToeBase
					{
						OFFSET 0.200000 -0.500000 1.950000
						CHANNELS 3 Zrotation Yrotation Xrotation
						End Site
						{
							OFFSET 0.000000 0.000000 0.000000
						}
					}
				}
			}
		}
	}
	JOINT RHipJoint
	{
		OFFSET 0.000000 0.000000 0.000000
		CHANNELS 3 Zrotation Yrotation Xrotation
		JOINT RightUpLeg
		{
			OFFSET -1.800000 -1.400000 0.085000
			CHANNELS 3 Zrotation Yrotation Xrotation
			JOINT RightLeg
			{
				OFFSET -2.215000 -6.000000 0.000000
				CHANNELS 3 Zrotation Yrotation Xrotation
				JOINT RightFoot
				{
					OFFSET -2.500000 -6.900000 0.000000
					CHANNELS 3 Zrotation Yrotation Xrotation
					JOINT RightToeBase
					{
						OFFSET -0.200000 -0.500000 1.950000
						CHANNELS 3 Zrotation Yrotation Xrotation
						End Site
						{
							OFFSET 0.000000 0.000000 0.000000
						}
					}
				}
			}
		}
	}
	JOINT LowerBack
	{
		OFFSET 0.000000 0.000000 0.000000
		CHANNELS 3 Zrotation Yrotation Xrotation
		JOINT Spine
		{
			OFFSET -0.087000 1.940000 -0.288900
			CHANNELS 3 Zrotation Yrotation Xrotation
			JOINT Spine1
			{
				OFFSET 0.000000 1.950000 0.060000
				CHANNELS 3 Zrotation Yrotation Xrotation
				JOINT Neck
				{
					OFFSET 0.000000 0.000000 0.000000
					CHANNELS 3 Zrotation Yrotation Xrotation
					JOINT Neck1
					{
						OFFSET 0.000000 1.600000 0.340000
						CHANNELS 3 Zrotation Yrotation Xrotation
						JOINT Head
						{
							OFFSET 0.000000 1.667000 -0.240000
							CHANNELS 3 Zrotation Yrotation Xrotation
							End Site
							{
								OFFSET 0.000000 0.000000 0.000000
							}
						}
					}
				}
				JOINT LeftShoulder
				{
					OFFSET 0.000000 0.000000 0.000000
					CHANNELS 3 Zrotation Yrotation Xrotation
					JOINT LeftArm
					{
						OFFSET 2.700000 1.550000 -0.730000
						CHANNELS 3 Zrotation Yrotation Xrotation
						JOINT LeftForeArm
						{
							OFFSET 5.450000 0.000000 0.000000
							CHANNELS 3 Zrotation Yrotation Xrotation
							JOINT LeftHand
							{
								OFFSET 3.450000 0.000000 0.000000
								CHANNELS 3 Zrotation Yrotation Xrotation
								JOINT LeftHandIndex1
								{
									OFFSET 0.750000 0.000000 0.000000
									CHANNELS 3 Zrotation Yrotation Xrotation
									End Site
									{
										OFFSET 0.000000 0.000000 0.000000
									}
								}
							}
						}
					}
				}
				JOINT RightShoulder
				{
					OFFSET 0.000000 0.000000 0.000000
					CHANNELS 3 Zrotation Yrotation Xrotation
					JOINT RightArm
					{
						OFFSET -2.700000 1.550000 -0.730000
						CHANNELS 3 Zrotation Yrotation Xrotation
						JOINT RightForeArm
						{
							OFFSET -5.450000 0.000000 0.000000
							CHANNELS 3 Zrotation Yrotation Xrotation
							JOINT RightHand
							{
								OFFSET -3.450000 0.000000 0.000000
								CHANNELS 3 Zrotation Yrotation Xrotation
								JOINT RightHandIndex1
								{
									OFFSET -0.750000 0.000000 0.000000
									CHANNELS 3 Zrotation Yrotation Xrotation
									End Site
									{
										OFFSET 0.000000 0.000000 0.000000
									}
								}
							}
						}
					}
				}
			}
		}
	}
}
MOTION
Frames: 7
Frame Time: 0.016667
-3.317280 16.315340 -1.130990 0.962369 9.941990 6.642097 -15.214117 13.321160 3.085024 12.727411 -1.691183 -13.286408 -6.442929 4.084530 1.524969 -0.188274 3.842129 3.264179 0.204080 0.228130 0.086030 18.186208 -10.261775 2.407103 -16.093644 0.087555 -12.991381 4.884851 -3.437811 4.122609 -0.013590 -3.340893 3.170090 0.282520 0.255040 0.116080 -3.548954 -3.159648 -7.256715 12.493806 -5.811211 7.415794 -6.452608 -3.761761 11.995214 2.765686 -6.603277 -11.651284 -13.598862 5.868841 25.952315 -4.400030 4.635170 -3.329870 -7.758156 -10.822428 3.816115 -20.660749 -19.164558 5.583078 -4.144050 -11.167573 0.709975 -4.077866 3.060530 -0.110240 0.273990 -0.145280 0.107470 2.420030 14.007611 8.833498 1.099267 4.864598 0.646290 -3.283126 13.862296 -0.216325 2.452229 -1.386345 -0.083210 0.126420 -0.008080 -0.010350 
-3.321520 16.317160 -1.135450 1.061280 10.458103 6.611299 -15.211120 13.350952 3.099938 12.606174 -1.716656 -13.560244 -6.286770 4.060269 1.702275 -0.200055 3.794369 3.275979 0.201380 0.220700 0.093160 18.176754 -10.339764 2.370077 -15.908089 0.079117 -13.173132 4.544269 -3.492264 4.935675 -0.005438 -3.294929 3.183052 0.275440 0.242510 0.112540 -3.552030 -3.100631 -7.261110 12.366073 -5.883125 7.696819 -6.758149 -3.788026 12.119250 3.073877 -6.316692 -11.844041 -12.969699 5.678812 26.014342 -4.445880 4.650380 -3.574550 -8.002380 -11.337482 4.094151 -20.530411 -18.409051 5.391565 -4.283024 -9.719978 0.589885 -4.081579 3.043431 -0.096680 0.263440 -0.137630 0.101650 2.064103 14.447187 8.935758 1.572984 5.236707 0.782560 -1.294514 14.501790 0.007242 2.443700 -1.365661 -0.086020 0.124000 -0.009080 -0.017520 
-3.330550 16.321210 -1.138830 1.245424 11.177126 6.531330 -15.208286 13.376157 3.117091 12.510337 -1.732080 -13.781385 -6.163454 4.048821 1.894474 -0.202064 3.750503 3.288063 0.188270 0.200640 0.095790 18.165387 -10.443129 2.327084 -15.586956 0.073119 -13.257033 3.798991 -3.483973 5.729531 0.004705 -3.237635 3.205210 0.256790 0.233160 0.111070 -3.556476 -2.991479 -7.270459 12.067480 -6.113001 7.902558 -7.522131 -3.941385 12.454514 3.697056 -5.712216 -12.108990 -11.742364 5.636972 26.409787 -4.405440 4.914880 -3.537430 -8.157508 -12.131726 4.719217 -21.280269 -17.015151 5.155267 -4.216985 -7.262825 0.360482 -4.097091 3.023473 -0.084680 0.255930 -0.131330 0.093630 0.975793 15.042751 8.821206 3.175324 6.078869 0.808245 2.546332 18.317624 0.706780 2.377360 -1.375109 -0.088020 0.116270 -0.007300 -0.024360 
-3.334810 16.324810 -1.135070 1.587024 11.699212 6.653502 -15.203682 13.364075 3.118288 12.199127 -1.747882 -13.935819 -6.177511 4.047899 2.131213 -0.219063 3.701132 3.297507 0.192920 0.200760 0.116470 18.158801 -10.542546 2.310043 -15.563052 0.111252 -13.540131 3.357941 -3.491933 6.360458 0.006426 -3.198367 3.211293 0.254040 0.211220 0.110020 -3.567326 -2.799834 -7.271146 11.602156 -6.139590 7.847696 -8.273244 -3.943502 12.495189 4.356749 -5.124900 -12.010696 -10.448543 5.436523 26.631973 -4.669990 5.107100 -4.112120 -8.473211 -12.246178 5.164200 -23.194009 -15.216541 4.765072 -4.321423 -6.358020 0.227570 -4.091040 3.014335 -0.066110 0.243780 -0.116710 0.083100 -0.036696 15.103724 8.233048 5.113488 7.149427 0.469051 6.423284 24.542577 1.892934 2.275242 -1.444752 -0.089230 0.112600 -0.010980 -0.038150 
-3.340990 16.330680 -1.125970 1.661748 12.444894 6.854424 -15.190348 13.313994 3.114146 12.249167 -1.785811 -14.379858 -6.155346 4.048004 2.414148 -0.236425 3.652836 3.302493 0.200760 0.205200 0.137780 18.164414 -10.631520 2.315231 -15.332296 0.199532 -13.699581 3.331896 -3.539130 6.844507 0.002169 -3.185887 3.208337 0.253610 0.189510 0.113500 -3.610164 -2.552348 -7.274708 11.365434 -6.026645 7.685867 -8.941033 -3.849015 12.398894 4.890453 -4.438632 -11.830920 -8.987227 5.024025 26.800520 -5.032370 5.162810 -4.656750 -9.026322 -12.337343 5.456738 -25.126669 -13.582847 4.290824 -4.883790 -6.280389 0.171945 -4.077664 3.015862 -0.052640 0.234450 -0.101710 0.075000 -0.584235 15.013963 7.716071 8.158314 8.237997 0.056803 10.704551 30.430498 3.371878 2.201484 -1.532587 -0.086280 0.105580 -0.017060 -0.049460 
-3.344590 16.339420 -1.118400 1.557223 13.323013 6.926267 -15.173567 13.269131 3.124724 12.490516 -1.801242 -14.806161 -6.180538 4.063154 2.631081 -0.234597 3.612601 3.305360 0.199250 0.201390 0.145790 18.170145 -10.727677 2.313703 -15.005524 0.281673 -13.792952 3.253963 -3.597658 7.483179 -0.001999 -3.163328 3.216261 0.240350 0.170280 0.110740 -3.663032 -2.312185 -7.295403 11.203647 -5.721958 7.682576 -9.403512 -3.564082 12.277464 5.272544 -3.760753 -11.896720 -7.680245 4.689391 27.324965 -4.873890 5.085640 -4.987050 -9.753353 -12.886131 5.844167 -27.225661 -12.142102 3.814890 -5.470376 -6.161787 0.125850 -4.051262 3.013989 -0.036010 0.216510 -0.084890 0.069830 -0.656160 15.384724 7.580579 11.656815 9.233584 -0.266915 15.367853 34.479579 4.926131 2.177242 -1.581884 -0.080900 0.101020 -0.021480 -0.053360 
-3.336120 16.357080 -1.105570 1.500007 14.474175 7.009752 -15.154576 13.222021 3.133321 12.572370 -1.841166 -15.410466 -6.298084 4.093904 2.961069 -0.239481 3.569482 3.309351 0.197810 0.196480 0.147820 18.181586 -10.804500 2.312474 -14.872010 0.343901 -13.709435 3.321847 -3.684344 7.995736 -0.009403 -3.171974 3.213228 0.229510 0.157060 0.108130 -3.734324 -2.113219 -7.303489 11.222031 -5.405299 7.589288 -9.927150 -3.219400 11.917363 5.467644 -3.539798 -11.878436 -7.229548 4.534547 27.670000 -4.679750 4.918930 -5.291550 -11.032703 -13.253917 6.012926 -29.664759 -11.006632 3.372775 -5.650983 -5.886627 0.050480 -4.029788 3.013580 -0.019760 0.199960 -0.072730 0.066910 0.189800 15.838495 7.505001 15.075998 10.170736 -0.387014 20.826279 36.292523 6.420560 2.193029 -1.604836 -0.077840 0.099890 -0.021920 -0.055330 
